# xmcd
#
# Track frame offsets: 
#        150
#        7935
#        26848
#        42165
#        58648
#        89992
#        104037
#        126021
#        157824
#        182484
#
# Disc length: 2841 seconds
#
# Revision: 0
# Processed by: cddbd v1.5.2PL0 Copyright (c) Steve Scherf et al.
# Submitted via: ExactAudioCopy v0.95b4
#
DISCID=7d0b170a
DTITLE=The Bakerton Group - El Rojo
DYEAR=2009
DGENRE=Rock
TTITLE0=Time Horizon
TTITLE1=Chancellor
TTITLE2=Peruvian Airspace
TTITLE3=Bien Clásico
TTITLE4=Life On Lars
TTITLE5=M.(f).H.S.
TTITLE6=The Gigantomakhia
TTITLE7=Work'em
TTITLE8=Last Orbit
TTITLE9=Bill Proger's Galaxy
EXTD=
EXTT0=
EXTT1=
EXTT2=
EXTT3=
EXTT4=
EXTT5=
EXTT6=
EXTT7=
EXTT8=
EXTT9=
PLAYORDER=
